<?xml version="1.0" encoding="UTF-8"?>
<svg id="Layer_1" data-name="Layer 1" xmlns="http://www.w3.org/2000/svg" viewBox="0 0 43.18 78.92">
  <defs>
    <style>
      .cls-1 {
        fill: #000;
        stroke-width: 0px;
      }
    </style>
  </defs>
  <path class="cls-1" d="M21.59,0C9.69,0,0,9.69,0,21.59v35.74c0,11.9,9.69,21.59,21.59,21.59s21.59-9.69,21.59-21.59V21.59C43.18,9.69,33.49,0,21.59,0ZM41.18,57.33c0,10.8-8.79,19.59-19.59,19.59S2,68.13,2,57.33V21.59C2,10.79,10.79,2,21.59,2s19.59,8.79,19.59,19.59v35.74Z"/>
  <path class="cls-1" d="M21.59,17.03c-1.43,0-2.59,1.16-2.59,2.59s1.16,2.59,2.59,2.59,2.59-1.16,2.59-2.59-1.16-2.59-2.59-2.59Z"/>
</svg>